<svg version="1.1" id="Layer_1" xmlns="http://www.w3.org/2000/svg" xmlns:xlink="http://www.w3.org/1999/xlink" x="0px" y="0px"
	 width="100%" viewBox="0 0 119 119" enable-background="new 0 0 119 119" xml:space="preserve">
<path fill="#FFFFFF" opacity="1.000000" stroke="none" 
	d="
M83.000000,120.000000 
	C55.333332,120.000000 28.166666,120.000000 1.000000,120.000000 
	C1.000000,80.333336 1.000000,40.666668 1.000000,1.000000 
	C40.666668,1.000000 80.333336,1.000000 120.000000,1.000000 
	C120.000000,40.666668 120.000000,80.333336 120.000000,120.000000 
	C107.833336,120.000000 95.666664,120.000000 83.000000,120.000000 
M32.889999,85.846024 
	C51.600574,85.824829 70.311150,85.803635 89.655121,85.797813 
	C89.759735,85.201828 89.864349,84.605835 90.152428,83.086601 
	C90.073250,64.384895 89.994064,45.683186 89.920166,26.466333 
	C89.629272,26.379784 89.338387,26.293234 88.108704,26.113075 
	C69.396545,26.187359 50.684391,26.261642 31.393456,26.366190 
	C31.273476,26.907295 31.153496,27.448402 30.847975,28.912468 
	C30.909006,47.277882 30.970039,65.643295 30.916584,84.585922 
	C31.267878,84.936729 31.619173,85.287537 32.889999,85.846024 
z"/>
<path fill="#555273" opacity="1.000000" stroke="none" 
	d="
M31.972233,26.335926 
	C50.684391,26.261642 69.396545,26.187359 88.677063,26.335323 
	C89.417564,26.779434 89.640717,26.920736 89.914886,26.981476 
	C89.994064,45.683186 90.073250,64.384895 89.828568,83.684647 
	C89.343712,84.782608 89.182716,85.282524 89.021721,85.782440 
	C70.311150,85.803635 51.600574,85.824829 32.396576,85.491135 
	C31.612457,84.760406 31.321764,84.384552 31.031071,84.008705 
	C30.970039,65.643295 30.909006,47.277882 31.163120,28.327412 
	C31.642920,27.273544 31.807577,26.804735 31.972233,26.335926 
z"/>
<path fill="#444165" opacity="1.000000" stroke="none" 
	d="
M31.682844,26.351059 
	C31.807577,26.804735 31.642920,27.273544 31.255890,27.865931 
	C31.153496,27.448402 31.273476,26.907295 31.682844,26.351059 
z"/>
<path fill="#444165" opacity="1.000000" stroke="none" 
	d="
M30.973827,84.297318 
	C31.321764,84.384552 31.612457,84.760406 31.936810,85.387299 
	C31.619173,85.287537 31.267878,84.936729 30.973827,84.297318 
z"/>
<path fill="#444165" opacity="1.000000" stroke="none" 
	d="
M89.338425,85.790131 
	C89.182716,85.282524 89.343712,84.782608 89.736832,84.146271 
	C89.864349,84.605835 89.759735,85.201828 89.338425,85.790131 
z"/>
<path fill="#444165" opacity="1.000000" stroke="none" 
	d="
M89.917526,26.723904 
	C89.640717,26.920736 89.417564,26.779434 89.146461,26.382130 
	C89.338387,26.293234 89.629272,26.379784 89.917526,26.723904 
z"/>
</svg>